<svg width="94" height="25" viewBox="0 0 94 25" fill="none" xmlns="http://www.w3.org/2000/svg">
<path d="M46.9564 10.3955C47.0049 10.4288 47.0567 10.4569 47.111 10.4796C47.2182 10.52 47.3328 10.5372 47.4471 10.53C47.6709 10.53 47.8854 10.4411 48.0436 10.2829C48.2018 10.1247 48.2907 9.91011 48.2907 9.68637C48.2819 9.5259 48.2313 9.37052 48.1441 9.23555C48.0569 9.10057 47.936 8.99068 47.7933 8.9167L47.7664 8.89654C43.5013 5.92878 40.2412 5.74393 37.0886 5.56916C34.1443 5.40111 31.3749 5.23306 27.698 2.79634C24.9184 0.941077 21.2852 0 16.9025 0C13.3852 0.0356058 9.8895 0.554699 6.51364 1.54269L6.33551 1.60319C6.31688 1.60787 6.29884 1.61464 6.28173 1.62336C6.09287 1.6892 5.93354 1.82 5.83218 1.99242C5.73082 2.16484 5.69401 2.36767 5.72834 2.56471C5.76266 2.76175 5.86587 2.94019 6.01956 3.06819C6.17325 3.19619 6.36742 3.26541 6.56742 3.26352C6.67715 3.26484 6.78593 3.24308 6.88671 3.19966L7.02787 3.15261C10.2365 2.21215 13.5591 1.71681 16.9025 1.68049C20.9356 1.68049 24.2563 2.52746 26.7535 4.19115C30.8069 6.90011 33.9561 7.07824 36.9978 7.24965C39.9084 7.41098 42.9232 7.58575 46.7984 10.2745L46.9564 10.3955Z" fill="white"></path>
<path d="M42.977 13.0239C41.8373 13.0233 40.7231 13.3606 39.7752 13.9934C38.8274 14.6261 38.0885 15.5258 37.652 16.5786C37.2156 17.6313 37.1012 18.7899 37.3234 19.9077C37.5456 21.0255 38.0943 22.0523 38.9002 22.8581C39.706 23.664 40.7328 24.2127 41.8506 24.4349C42.9684 24.657 44.1269 24.5427 45.1797 24.1062C46.2325 23.6698 47.1322 22.9309 47.7649 21.9831C48.3976 21.0352 48.735 19.921 48.7344 18.7813C48.7326 17.2549 48.1254 15.7915 47.0461 14.7122C45.9668 13.6329 44.5034 13.0257 42.977 13.0239ZM47.0539 18.7813C47.0545 19.5886 46.8157 20.3779 46.3676 21.0494C45.9195 21.7209 45.2823 22.2444 44.5366 22.5537C43.7909 22.8629 42.9702 22.944 42.1784 22.7867C41.3866 22.6293 40.6593 22.2407 40.0885 21.6698C39.5176 21.099 39.129 20.3717 38.9716 19.5799C38.8143 18.788 38.8954 17.9674 39.2046 17.2217C39.5139 16.476 40.0374 15.8388 40.7089 15.3907C41.3804 14.9426 42.1697 14.7038 42.977 14.7044C44.0577 14.7062 45.0936 15.1363 45.8578 15.9005C46.622 16.6647 47.0521 17.7006 47.0539 18.7813Z" fill="white"></path>
<path d="M23.8632 13.0003C23.6385 13.0003 23.4231 13.0895 23.2643 13.2484C23.1054 13.4072 23.0162 13.6226 23.0162 13.8473V18.7812C22.9857 19.8426 22.5427 20.8504 21.7811 21.5904C21.0196 22.3304 19.9995 22.7443 18.9377 22.7443C17.8758 22.7443 16.8557 22.3304 16.0942 21.5904C15.3326 20.8504 14.8896 19.8426 14.8591 18.7812V13.8473C14.8742 13.728 14.8638 13.6069 14.8284 13.492C14.7931 13.3771 14.7338 13.271 14.6543 13.1808C14.5748 13.0906 14.477 13.0184 14.3675 12.9689C14.2579 12.9194 14.1391 12.8938 14.0188 12.8938C13.8986 12.8938 13.7798 12.9194 13.6702 12.9689C13.5607 13.0184 13.4629 13.0906 13.3834 13.1808C13.3039 13.271 13.2446 13.3771 13.2092 13.492C13.1739 13.6069 13.1635 13.728 13.1786 13.8473V18.7812C13.2149 20.2872 13.8387 21.7192 14.9167 22.7715C15.9946 23.8237 17.4413 24.4128 18.9477 24.4128C20.4541 24.4128 21.9008 23.8237 22.9788 22.7715C24.0567 21.7192 24.6805 20.2872 24.7169 18.7812V13.9044C24.7149 13.8899 24.7149 13.8752 24.7169 13.8607C24.7178 13.748 24.6963 13.6363 24.6538 13.5319C24.6113 13.4276 24.5486 13.3327 24.4692 13.2527C24.3899 13.1727 24.2954 13.1092 24.1914 13.0659C24.0874 13.0226 23.9759 13.0003 23.8632 13.0003Z" fill="white"></path>
<path d="M35.5593 13.0308H26.7737C26.5535 13.0369 26.3444 13.1289 26.1912 13.2872C26.0379 13.4455 25.9527 13.6574 25.9536 13.8777C25.9545 13.9894 25.9774 14.0998 26.0209 14.2026C26.0645 14.3055 26.1278 14.3987 26.2074 14.477C26.287 14.5554 26.3812 14.6173 26.4848 14.6592C26.5883 14.7011 26.699 14.7222 26.8107 14.7213H30.3263V23.7053C30.3283 23.7164 30.3283 23.7278 30.3263 23.7389C30.3112 23.8581 30.3216 23.9792 30.3569 24.0942C30.3922 24.2091 30.4516 24.3152 30.5311 24.4053C30.6106 24.4955 30.7083 24.5678 30.8179 24.6173C30.9275 24.6667 31.0463 24.6923 31.1665 24.6923C31.2867 24.6923 31.4056 24.6667 31.5151 24.6173C31.6247 24.5678 31.7225 24.4955 31.8019 24.4053C31.8814 24.3152 31.9408 24.2091 31.9761 24.0942C32.0114 23.9792 32.0219 23.8581 32.0068 23.7389V14.7213H35.5593C35.6786 14.7365 35.7997 14.726 35.9146 14.6907C36.0295 14.6554 36.1356 14.596 36.2258 14.5165C36.316 14.437 36.3882 14.3393 36.4377 14.2297C36.4872 14.1201 36.5128 14.0013 36.5128 13.8811C36.5128 13.7609 36.4872 13.642 36.4377 13.5325C36.3882 13.4229 36.316 13.3251 36.2258 13.2457C36.1356 13.1662 36.0295 13.1068 35.9146 13.0715C35.7997 13.0362 35.6786 13.0257 35.5593 13.0408" fill="white"></path>
<path d="M79.8672 13.0308H71.0815C70.8773 13.0608 70.691 13.1645 70.5578 13.3222C70.4246 13.4799 70.3536 13.6809 70.3581 13.8873C70.3627 14.0937 70.4424 14.2914 70.5825 14.4431C70.7225 14.5948 70.9131 14.6902 71.1185 14.7113H74.6341V23.7389C74.619 23.8581 74.6294 23.9792 74.6647 24.0942C74.7001 24.2091 74.7594 24.3152 74.8389 24.4053C74.9184 24.4955 75.0162 24.5678 75.1257 24.6173C75.2353 24.6667 75.3541 24.6923 75.4743 24.6923C75.5946 24.6923 75.7134 24.6667 75.823 24.6173C75.9325 24.5678 76.0303 24.4955 76.1098 24.4053C76.1893 24.3152 76.2486 24.2091 76.284 24.0942C76.3193 23.9792 76.3297 23.8581 76.3146 23.7389V14.7213H79.8638C79.9831 14.7365 80.1042 14.726 80.2191 14.6907C80.334 14.6554 80.4401 14.596 80.5303 14.5165C80.6205 14.437 80.6927 14.3393 80.7422 14.2297C80.7917 14.1201 80.8173 14.0013 80.8173 13.8811C80.8173 13.7609 80.7917 13.642 80.7422 13.5325C80.6927 13.4229 80.6205 13.3251 80.5303 13.2457C80.4401 13.1662 80.334 13.1068 80.2191 13.0715C80.1042 13.0362 79.9831 13.0257 79.8638 13.0408" fill="white"></path>
<path d="M93.1465 13.0038C93.0162 13.0046 92.8878 13.0353 92.7712 13.0935C92.6547 13.1518 92.5531 13.2361 92.4743 13.3399L88.6696 18.1831L84.3004 13.3399C84.2409 13.2354 84.1599 13.1448 84.0627 13.074C83.9655 13.0033 83.8543 12.9541 83.7366 12.9296C83.6189 12.9051 83.4974 12.906 83.38 12.9321C83.2627 12.9583 83.1522 13.0091 83.0561 13.0813C82.9599 13.1534 82.8802 13.2452 82.8222 13.3505C82.7643 13.4558 82.7294 13.5723 82.7199 13.6921C82.7104 13.812 82.7266 13.9324 82.7673 14.0456C82.808 14.1587 82.8723 14.2618 82.956 14.3482C82.956 14.3683 82.9862 14.3851 82.9996 14.402L87.8294 19.7493V23.7321C87.8143 23.8513 87.8247 23.9724 87.86 24.0874C87.8953 24.2023 87.9547 24.3083 88.0342 24.3985C88.1137 24.4887 88.2115 24.561 88.321 24.6104C88.4306 24.6599 88.5494 24.6855 88.6696 24.6855C88.7899 24.6855 88.9087 24.6599 89.0182 24.6104C89.1278 24.561 89.2256 24.4887 89.3051 24.3985C89.3846 24.3083 89.4439 24.2023 89.4792 24.0874C89.5145 23.9724 89.525 23.8513 89.5099 23.7321C89.5114 23.7164 89.5114 23.7007 89.5099 23.685V19.8602L93.8422 14.3415C93.8583 14.3232 93.8719 14.3029 93.8825 14.281C93.9604 14.151 94.0011 14.0022 94.0002 13.8508C93.9993 13.627 93.9102 13.4126 93.7523 13.254C93.5944 13.0955 93.3803 13.0056 93.1566 13.0038" fill="white"></path>
<path d="M56.9083 14.7144H60.834C61.0385 14.6885 61.2266 14.5889 61.3629 14.4342C61.4992 14.2795 61.5744 14.0804 61.5744 13.8742C61.5744 13.668 61.4992 13.4689 61.3629 13.3142C61.2266 13.1595 61.0385 13.0599 60.834 13.0339H56.9083C55.4015 13.0703 53.9686 13.6944 52.9157 14.773C51.8628 15.8516 51.2734 17.2991 51.2734 18.8064C51.2734 20.3137 51.8628 21.7613 52.9157 22.8398C53.9686 23.9184 55.4015 24.5426 56.9083 24.5789H60.834C60.9506 24.5894 61.0682 24.5754 61.1791 24.5379C61.2901 24.5005 61.392 24.4403 61.4785 24.3612C61.5649 24.2822 61.6339 24.186 61.6812 24.0788C61.7284 23.9717 61.7528 23.8558 61.7528 23.7387C61.7528 23.6216 61.7284 23.5057 61.6812 23.3985C61.6339 23.2913 61.5649 23.1952 61.4785 23.1161C61.392 23.0371 61.2901 22.9769 61.1791 22.9394C61.0682 22.902 60.9506 22.888 60.834 22.8984H56.9083C55.8253 22.8984 54.7866 22.4682 54.0208 21.7024C53.255 20.9366 52.8247 19.8979 52.8247 18.8148C52.8247 17.7318 53.255 16.6931 54.0208 15.9273C54.7866 15.1615 55.8253 14.7312 56.9083 14.7312" fill="white"></path>
<path d="M66.188 13.0171C66.0781 13.017 65.9692 13.0386 65.8677 13.0807C65.7662 13.1228 65.674 13.1846 65.5964 13.2624C65.5147 13.3452 65.4503 13.4434 65.407 13.5513C65.3638 13.6592 65.3424 13.7747 65.3444 13.8909V23.7454C65.3546 23.9568 65.444 24.1567 65.5948 24.3052C65.7456 24.4538 65.9467 24.5403 66.1583 24.5475C66.3699 24.5547 66.5764 24.4821 66.7369 24.3441C66.8975 24.2061 67.0002 24.0128 67.0249 23.8025C67.0265 23.7824 67.0265 23.7621 67.0249 23.742V13.8271C67.0153 13.6089 66.9219 13.4029 66.7641 13.252C66.6063 13.101 66.3962 13.0169 66.1779 13.0171" fill="white"></path>
<path d="M11.7635 23.322L6.63459 13.6356C6.55384 13.4594 6.42404 13.3103 6.26072 13.206C6.09739 13.1016 5.90747 13.0466 5.71368 13.0474C5.50934 13.0449 5.30934 13.1064 5.14175 13.2234C4.97417 13.3403 4.84743 13.5068 4.77933 13.6995L0.084025 23.3758C0.0741827 23.3974 0.0663086 23.4199 0.0604981 23.443C0.020467 23.54 -8.93466e-05 23.6439 2.919e-07 23.7488C2.919e-07 23.9735 0.0892343 24.1889 0.248072 24.3477C0.406909 24.5066 0.622339 24.5958 0.846969 24.5958C0.990957 24.5977 1.13298 24.5622 1.25908 24.4927C1.38518 24.4231 1.49103 24.322 1.56622 24.1992C1.5828 24.1788 1.59638 24.1562 1.60655 24.132L5.74393 15.5783L10.2208 24.048C10.2954 24.2295 10.4305 24.3797 10.6033 24.4729C10.776 24.5662 10.9757 24.5969 11.1684 24.5596C11.3612 24.5224 11.5351 24.4197 11.6607 24.2688C11.7863 24.118 11.8559 23.9283 11.8576 23.732C11.8519 23.6079 11.8198 23.4865 11.7635 23.3758C11.7569 23.3573 11.749 23.3393 11.7399 23.322" fill="white"></path>
</svg>