<svg width="143" height="38" viewBox="0 0 143 38" fill="none" xmlns="http://www.w3.org/2000/svg">
<path d="M71.0481 15.7291C71.1215 15.7794 71.1999 15.822 71.282 15.8562C71.4442 15.9175 71.6175 15.9435 71.7905 15.9325C72.1291 15.9325 72.4537 15.798 72.6931 15.5587C72.9325 15.3193 73.067 14.9946 73.067 14.6561C73.0536 14.4133 72.9771 14.1782 72.8451 13.974C72.7132 13.7697 72.5302 13.6035 72.3143 13.4915L72.2737 13.461C65.8203 8.97062 60.8875 8.69093 56.1174 8.42649C51.6626 8.17222 47.4722 7.91795 41.9088 4.23104C37.7032 1.42391 32.2059 0 25.5745 0C20.2527 0.0538739 14.9635 0.839295 9.85559 2.33419L9.58607 2.42573C9.55788 2.43281 9.53059 2.44305 9.5047 2.45624C9.21894 2.55586 8.97787 2.75377 8.8245 3.01465C8.67113 3.27554 8.61544 3.58243 8.66737 3.88057C8.7193 4.17871 8.87547 4.4487 9.10801 4.64236C9.34056 4.83603 9.63434 4.94078 9.93696 4.93791C10.103 4.93991 10.2676 4.90699 10.4201 4.84129L10.6337 4.77009C15.4885 3.34712 20.5158 2.59765 25.5745 2.54269C31.677 2.54269 36.7014 3.82421 40.4798 6.34148C46.6128 10.4403 51.3778 10.7098 55.9801 10.9692C60.384 11.2133 64.9456 11.4777 70.8091 15.546L71.0481 15.7291Z" fill="black"></path>
<path d="M65.0271 19.7061C63.3027 19.7051 61.6168 20.2155 60.1826 21.1729C58.7485 22.1303 57.6305 23.4915 56.9701 25.0845C56.3098 26.6774 56.1367 28.4304 56.4729 30.1216C56.8091 31.8129 57.6393 33.3665 58.8586 34.5858C60.0779 35.8051 61.6315 36.6354 63.3228 36.9715C65.0141 37.3077 66.7671 37.1347 68.36 36.4743C69.9529 35.814 71.3141 34.696 72.2715 33.2618C73.2289 31.8276 73.7394 30.1417 73.7384 28.4173C73.7357 26.1078 72.817 23.8936 71.1839 22.2605C69.5508 20.6274 67.3367 19.7087 65.0271 19.7061ZM71.1957 28.4173C71.1967 29.6388 70.8353 30.8331 70.1574 31.8491C69.4794 32.8652 68.5152 33.6573 67.3869 34.1252C66.2586 34.5931 65.0169 34.7157 63.8188 34.4777C62.6208 34.2396 61.5203 33.6516 60.6566 32.7879C59.7929 31.9241 59.2048 30.8236 58.9667 29.6256C58.7287 28.4275 58.8514 27.1858 59.3193 26.0575C59.7872 24.9292 60.5793 23.9651 61.5953 23.2871C62.6113 22.6091 63.8056 22.2477 65.0271 22.2488C66.6623 22.2514 68.2297 22.9022 69.386 24.0585C70.5422 25.2147 71.193 26.7821 71.1957 28.4173Z" fill="black"></path>
<path d="M36.1063 19.6704C35.7664 19.6704 35.4405 19.8054 35.2001 20.0458C34.9598 20.2861 34.8248 20.6121 34.8248 20.9519V28.4173C34.7787 30.0233 34.1083 31.5481 32.956 32.6677C31.8037 33.7874 30.2604 34.4138 28.6537 34.4138C27.047 34.4138 25.5036 33.7874 24.3513 32.6677C23.1991 31.5481 22.5287 30.0233 22.4826 28.4173V20.9519C22.5054 20.7715 22.4896 20.5882 22.4362 20.4144C22.3828 20.2405 22.2929 20.08 22.1727 19.9435C22.0524 19.807 21.9045 19.6977 21.7387 19.6229C21.5729 19.548 21.3931 19.5093 21.2112 19.5093C21.0293 19.5093 20.8495 19.548 20.6837 19.6229C20.518 19.6977 20.37 19.807 20.2498 19.9435C20.1295 20.08 20.0397 20.2405 19.9862 20.4144C19.9328 20.5882 19.917 20.7715 19.9399 20.9519V28.4173C19.9949 30.6959 20.9387 32.8627 22.5697 34.4548C24.2007 36.0469 26.3897 36.9382 28.6689 36.9382C30.9482 36.9382 33.1371 36.0469 34.7682 34.4548C36.3992 32.8627 37.343 30.6959 37.398 28.4173V21.0384C37.3951 21.0164 37.3951 20.9942 37.398 20.9723C37.3993 20.8018 37.3669 20.6327 37.3026 20.4748C37.2383 20.3169 37.1434 20.1734 37.0233 20.0523C36.9032 19.9313 36.7604 19.8352 36.603 19.7697C36.4456 19.7042 36.2768 19.6704 36.1063 19.6704Z" fill="black"></path>
<path d="M53.8036 19.7163H40.5104C40.1772 19.7256 39.8608 19.8649 39.6289 20.1043C39.3971 20.3438 39.2681 20.6645 39.2695 20.9978C39.2709 21.1668 39.3055 21.3338 39.3714 21.4894C39.4373 21.645 39.5331 21.7861 39.6536 21.9046C39.774 22.0232 39.9166 22.1168 40.0732 22.1802C40.2298 22.2436 40.3974 22.2756 40.5663 22.2743H45.8856V35.8675C45.8887 35.8843 45.8887 35.9015 45.8856 35.9184C45.8628 36.0988 45.8786 36.2821 45.932 36.4559C45.9854 36.6298 46.0753 36.7903 46.1955 36.9268C46.3158 37.0632 46.4637 37.1726 46.6295 37.2474C46.7953 37.3223 46.9751 37.361 47.157 37.361C47.3389 37.361 47.5187 37.3223 47.6845 37.2474C47.8502 37.1726 47.9982 37.0632 48.1184 36.9268C48.2387 36.7903 48.3285 36.6298 48.382 36.4559C48.4354 36.2821 48.4512 36.0988 48.4283 35.9184V22.2743H53.8036C53.984 22.2971 54.1673 22.2813 54.3412 22.2279C54.515 22.1745 54.6755 22.0846 54.812 21.9644C54.9485 21.8441 55.0578 21.6962 55.1326 21.5304C55.2075 21.3646 55.2462 21.1848 55.2462 21.0029C55.2462 20.821 55.2075 20.6412 55.1326 20.4754C55.0578 20.3097 54.9485 20.1617 54.812 20.0415C54.6755 19.9212 54.515 19.8314 54.3412 19.7779C54.1673 19.7245 53.984 19.7087 53.8036 19.7316" fill="black"></path>
<path d="M120.844 19.7163H107.551C107.242 19.7618 106.96 19.9186 106.759 20.1573C106.557 20.396 106.449 20.7 106.456 21.0124C106.463 21.3247 106.584 21.6237 106.796 21.8533C107.008 22.0829 107.296 22.2271 107.607 22.259H112.926V35.9184C112.903 36.0988 112.919 36.2821 112.973 36.4559C113.026 36.6298 113.116 36.7903 113.236 36.9268C113.356 37.0632 113.504 37.1726 113.67 37.2474C113.836 37.3223 114.016 37.361 114.198 37.361C114.379 37.361 114.559 37.3223 114.725 37.2474C114.891 37.1726 115.039 37.0632 115.159 36.9268C115.279 36.7903 115.369 36.6298 115.423 36.4559C115.476 36.2821 115.492 36.0988 115.469 35.9184V22.2743H120.839C121.02 22.2971 121.203 22.2813 121.377 22.2279C121.551 22.1745 121.711 22.0846 121.847 21.9644C121.984 21.8441 122.093 21.6962 122.168 21.5304C122.243 21.3646 122.282 21.1848 122.282 21.0029C122.282 20.821 122.243 20.6412 122.168 20.4754C122.093 20.3097 121.984 20.1617 121.847 20.0415C121.711 19.9212 121.551 19.8314 121.377 19.7779C121.203 19.7245 121.02 19.7087 120.839 19.7316" fill="black"></path>
<path d="M140.936 19.6756C140.739 19.6767 140.545 19.7232 140.368 19.8114C140.192 19.8996 140.038 20.0271 139.919 20.1841L134.163 27.5122L127.552 20.1841C127.462 20.026 127.339 19.8889 127.192 19.7819C127.045 19.6748 126.877 19.6003 126.699 19.5633C126.52 19.5263 126.337 19.5276 126.159 19.5672C125.981 19.6068 125.814 19.6837 125.669 19.7928C125.523 19.9019 125.403 20.0408 125.315 20.2002C125.227 20.3595 125.175 20.5357 125.16 20.7171C125.146 20.8984 125.17 21.0807 125.232 21.2519C125.293 21.423 125.391 21.5791 125.517 21.7097C125.517 21.7402 125.563 21.7657 125.583 21.7911L132.891 29.882V35.9081C132.868 36.0886 132.884 36.2718 132.938 36.4457C132.991 36.6196 133.081 36.7801 133.201 36.9166C133.321 37.053 133.469 37.1623 133.635 37.2372C133.801 37.3121 133.981 37.3508 134.163 37.3508C134.344 37.3508 134.524 37.3121 134.69 37.2372C134.856 37.1623 135.004 37.053 135.124 36.9166C135.244 36.7801 135.334 36.6196 135.388 36.4457C135.441 36.2718 135.457 36.0886 135.434 35.9081C135.436 35.8845 135.436 35.8606 135.434 35.8369V30.0498L141.989 21.6996C142.013 21.672 142.034 21.6412 142.05 21.608C142.168 21.4115 142.229 21.1863 142.228 20.9571C142.227 20.6185 142.092 20.2941 141.853 20.0542C141.614 19.8143 141.29 19.6783 140.952 19.6756" fill="black"></path>
<path d="M86.106 22.264H92.0457C92.3552 22.2248 92.6398 22.074 92.8461 21.8399C93.0523 21.6059 93.1661 21.3046 93.1661 20.9927C93.1661 20.6807 93.0523 20.3794 92.8461 20.1454C92.6398 19.9113 92.3552 19.7605 92.0457 19.7213H86.106C83.8261 19.7763 81.658 20.7207 80.0649 22.3527C78.4719 23.9846 77.5801 26.1749 77.5801 28.4555C77.5801 30.7361 78.4719 32.9263 80.0649 34.5583C81.658 36.1903 83.8261 37.1346 86.106 37.1896H92.0457C92.2223 37.2054 92.4001 37.1843 92.568 37.1276C92.7359 37.0709 92.8902 36.9798 93.021 36.8602C93.1517 36.7406 93.2562 36.5951 93.3276 36.4329C93.3991 36.2708 93.436 36.0955 93.436 35.9183C93.436 35.7411 93.3991 35.5658 93.3276 35.4036C93.2562 35.2414 93.1517 35.0959 93.021 34.9763C92.8902 34.8567 92.7359 34.7657 92.568 34.709C92.4001 34.6523 92.2223 34.6311 92.0457 34.6469H86.106C84.4673 34.6469 82.8957 33.996 81.737 32.8372C80.5782 31.6785 79.9273 30.1069 79.9273 28.4682C79.9273 26.8295 80.5782 25.2579 81.737 24.0991C82.8957 22.9404 84.4673 22.2894 86.106 22.2894" fill="black"></path>
<path d="M100.147 19.6959C99.9804 19.6957 99.8157 19.7284 99.6621 19.7922C99.5085 19.8559 99.369 19.9493 99.2517 20.0672C99.1281 20.1923 99.0306 20.3409 98.9651 20.5042C98.8997 20.6675 98.8674 20.8422 98.8703 21.0181V35.9285C98.8859 36.2484 99.0211 36.5508 99.2493 36.7756C99.4774 37.0004 99.7817 37.1313 100.102 37.1422C100.422 37.153 100.734 37.0432 100.977 36.8344C101.22 36.6256 101.376 36.3331 101.413 36.0149C101.416 35.9845 101.416 35.9539 101.413 35.9234V20.9215C101.399 20.5914 101.257 20.2796 101.018 20.0513C100.78 19.8229 100.462 19.6956 100.131 19.6959" fill="black"></path>
<path d="M17.7989 35.2876L10.0386 20.6315C9.91638 20.365 9.71998 20.1393 9.47287 19.9814C9.22575 19.8236 8.93838 19.7403 8.64516 19.7416C8.33598 19.7377 8.03336 19.8308 7.7798 20.0077C7.52624 20.1847 7.33447 20.4366 7.23142 20.7281L0.127135 35.369C0.112243 35.4017 0.100329 35.4358 0.0915374 35.4707C0.0309678 35.6174 -0.000135187 35.7747 4.41663e-07 35.9335C4.41663e-07 36.2733 0.135017 36.5993 0.375348 36.8396C0.61568 37.08 0.941639 37.215 1.28152 37.215C1.49938 37.2179 1.71427 37.1642 1.90507 37.0589C2.09587 36.9537 2.25602 36.8007 2.36979 36.6149C2.39488 36.5841 2.41542 36.5498 2.43082 36.5132L8.69093 23.5709L15.4647 36.3861C15.5776 36.6608 15.782 36.888 16.0434 37.0291C16.3048 37.1702 16.6069 37.2166 16.8985 37.1603C17.1902 37.104 17.4534 36.9485 17.6434 36.7203C17.8335 36.492 17.9387 36.205 17.9412 35.908C17.9326 35.7203 17.8841 35.5365 17.7989 35.369C17.7889 35.3411 17.777 35.3139 17.7633 35.2876" fill="black"></path>
</svg>